<svg preserveAspectRatio="none" width="268" height="22" viewBox="0 0 268 22" fill="none" xmlns="http://www.w3.org/2000/svg">
  <path fill-rule="evenodd" clip-rule="evenodd" d="M254.57.42c0 .28-.16.5-.36.5-.2 0-.37-.17-.37-.4 0-.25-1.58-.37-4.4-.33-2.95.04-4.4.2-4.4.5 0 .24-.16.18-.34-.13-.24-.39-.48-.44-.82-.17-.27.21-1.64.44-3.06.5-1.4.07-2.64.23-2.75.37-.1.14-1.58.3-3.3.36-1.71.05-3.36.2-3.66.32-.3.12-1.46.28-2.57.35-1.1.07-2.51.21-3.12.3-1.72.28-4.58.66-6.76.9-1.1.12-2.12.3-2.26.4-.15.09-1.2.25-2.34.35a9.9 9.9 0 00-2.44.43c-.2.14-1.14.32-2.08.4-.95.1-2.13.27-2.63.4s-1.5.3-2.2.37c-4.16.45-5.38.62-5.87.83-.3.13-.68.28-.83.32-.15.05-.31.13-.36.18-.05.05-.76.13-1.57.18-.8.06-2.46.24-3.67.41-1.2.17-2.85.35-3.66.4-2.63.15-6.2.62-6.56.87-.2.13-3.13.2-6.52.15-4.78-.06-6.17.04-6.17.42 0 .4-.07.4-.3 0-.3-.5-5.4-.79-5.82-.33-.1.1-.57.04-1.05-.16-.56-.22-.95-.2-1.1.07-.17.28-.35.25-.54-.09-.23-.38-.42-.4-.81-.05-.34.3-.63.33-.88.06-.44-.46-1.63-.67-6.55-1.14a89.8 89.8 0 01-6.96-1c-1.82-.35-3.8-.7-4.4-.79a60.6 60.6 0 01-5.32-.95c-1.11-.24-3-.5-4.22-.58a14.09 14.09 0 01-2.78-.38c-.33-.14-.74-.21-.92-.16-.18.04-.74-.03-1.25-.17-.5-.14-1.66-.34-2.56-.44-.91-.1-3.14-.38-4.95-.6l-4.59-.59a7.96 7.96 0 01-1.28-.21c0-.3-2.27-.13-2.47.18-.18.28-.27.26-.28-.07 0-.33-.8-.48-2.66-.48-1.46 0-3.58-.14-4.7-.32-2.25-.35-7.44-.28-8.03.1-.21.14-.38.07-.38-.17 0-.26-.37-.31-1-.14-.56.15-1.35.23-1.75.18-1.04-.14-.77-.14-8.43.12-7.22.24-7.7.29-10.45.92-.91.21-1.9.4-2.2.4-2.8.1-7.82.76-13.57 1.8-.5.1-2.05.36-3.45.6-1.39.24-2.83.6-3.2.82-.38.22-.69.25-.69.08 0-.17-.16-.04-.36.28-.26.43-.36.45-.36.07 0-.5-1.47-.52-1.84-.01-.1.13-1.1.35-2.2.47-2.14.23-8.98 1.65-9.45 1.95-.15.1-1.19.29-2.3.42-1.12.13-2.52.38-3.12.56-.6.18-1.29.25-1.54.16-.25-.1-.46.03-.46.27 0 .25-.17.34-.38.2s-.58-.08-.83.13c-.24.2-1.1.48-1.9.6-.81.11-2.05.37-2.75.56l-1.56.42-1.4.31c-.63.14-1.22.47-1.32.74-.1.3-.56.43-1.07.33a4.9 4.9 0 00-2.43.62c-.84.43-1.87.79-2.29.8-1 0-2.03.75-1.4 1.02.26.11.46.37.46.57 0 .23-.24.24-.64.02-.8-.43-2.48-.2-3.52.5-.43.28-1.27.63-1.86.78-.59.15-2.12.79-3.39 1.42-2.13 1.06-2.28 1.21-1.86 1.93.25.42.57.77.71.77.56 0 2.13-.92 2.13-1.26 0-.19.17-.23.38-.1.21.14.63.04.92-.21.3-.26.53-.37.53-.24s.87-.13 1.93-.57a76.8 76.8 0 014.86-1.77l4.58-1.5c.9-.3 2.4-.66 3.3-.8.9-.15 2.31-.5 3.12-.77.8-.28 2.07-.61 2.82-.75 1.11-.2 1.38-.44 1.5-1.31l.15-1.06.06 1.02.05 1.02 2.66-.53 5.6-1.14c1.6-.33 3.42-.67 4.03-.76 1.58-.23 4.52-.86 6.27-1.33 1.52-.41 3.46-.77 5.46-1 .6-.07 2.17-.34 3.48-.6 1.31-.26 2.63-.47 2.94-.47.3 0 2.44-.31 4.76-.7 3.91-.67 5-.82 9.54-1.36l3.11-.38c1.85-.22 8.87-.67 11.6-.74 1.48-.04 2.01-.2 1.88-.54-.1-.27.01-.49.24-.49.22 0 .4.15.4.33 0 .35.06.36 2.66.7 1.24.16 1.74.08 1.74-.26 0-.32.15-.35.46-.1.25.2 3.43.4 7.06.45 7.54.1 9.02.18 9.55.53.21.14.87.2 1.46.12.59-.06 1.45.03 1.9.22.47.18 1.63.42 2.58.52 2.69.3 9.96 1.3 16.96 2.33.5.07 1.9.32 3.12.56 4.75.91 6.96 1.13 7.42.75.31-.27.46-.25.46.05 0 .24.42.43.92.43s1.26.22 1.66.5c.6.39.8.38 1.05-.05.18-.31.37-.37.45-.13.08.22.88.5 1.79.63l4.4.63c10 1.43 29.8 1.22 38.87-.4 1.1-.2 3-.47 4.21-.6s3.2-.48 4.4-.77a71.4 71.4 0 015.66-.99 317.28 317.28 0 008.46-1.23c1.71-.25 3.2-.56 3.3-.68.1-.12 1-.24 2.02-.27 1-.03 3.81-.36 6.23-.74 2.42-.38 4.69-.7 5.04-.72.35-.01.64-.24.64-.5a1 1 0 01.4-.75c.28-.18.34 0 .18.51-.22.73-.13.76 1.39.46.89-.17 3.33-.42 5.42-.54 2.09-.12 4.79-.32 6-.43 4.54-.44 8.72-.58 15.36-.52l2.9.03 1.37-1.7c.76-.92 1.35-1.72 1.3-1.77-.21-.25-5.4-.33-5.55-.08-.1.17-.58.23-1.08.13-.5-.1-2.22-.22-3.84-.28-2.22-.09-2.95.01-2.95.4zm-110.69 8.8c-.36.39-.4.35-.2-.21.13-.39.34-.6.45-.48.12.12 0 .43-.25.7z" fill="#FFD338"/>
</svg>
