<svg width="1428" height="527" viewBox="0 0 1428 527" fill="none" xmlns="http://www.w3.org/2000/svg">
<g clip-path="url(#clip0)">
<path d="M720 526.487C1116.87 526.487 1438.6 408.744 1438.6 263.5C1438.6 118.256 1116.87 0.512695 720 0.512695C323.129 0.512695 1.40078 118.256 1.40078 263.5C1.40078 408.744 323.129 526.487 720 526.487Z" stroke="#FFF4DB" stroke-width="2"/>
<path d="M720 493.678C1067.36 493.678 1348.95 390.624 1348.95 263.5C1348.95 136.376 1067.36 33.3223 720 33.3223C372.641 33.3223 91.0506 136.376 91.0506 263.5C91.0506 390.624 372.641 493.678 720 493.678Z" stroke="#FFF4DB" stroke-width="2"/>
<path d="M720 460.868C1017.85 460.868 1259.3 372.503 1259.3 263.5C1259.3 154.496 1017.85 66.1309 720 66.1309C422.153 66.1309 180.7 154.496 180.7 263.5C180.7 372.503 422.153 460.868 720 460.868Z" stroke="#FFF4DB" stroke-width="2"/>
<path d="M720 428.059C968.335 428.059 1169.65 354.383 1169.65 263.5C1169.65 172.616 968.335 98.9404 720 98.9404C471.665 98.9404 270.35 172.616 270.35 263.5C270.35 354.383 471.665 428.059 720 428.059Z" stroke="#FFF4DB" stroke-width="2"/>
<path d="M720 395.25C918.823 395.25 1080 336.264 1080 263.5C1080 190.736 918.823 131.75 720 131.75C521.177 131.75 360 190.736 360 263.5C360 336.264 521.177 395.25 720 395.25Z" stroke="#FFF4DB" stroke-width="2"/>
<path d="M720 362.441C869.31 362.441 990.35 318.144 990.35 263.5C990.35 208.857 869.31 164.56 720 164.56C570.69 164.56 449.65 208.857 449.65 263.5C449.65 318.144 570.69 362.441 720 362.441Z" stroke="#FFF4DB" stroke-width="2"/>
<path d="M720 329.632C819.798 329.632 900.7 300.024 900.7 263.5C900.7 226.977 819.798 197.369 720 197.369C620.202 197.369 539.3 226.977 539.3 263.5C539.3 300.024 620.202 329.632 720 329.632Z" stroke="#FFF4DB" stroke-width="2"/>
<path d="M720 296.822C770.286 296.822 811.051 281.903 811.051 263.5C811.051 245.096 770.286 230.178 720 230.178C669.714 230.178 628.949 245.096 628.949 263.5C628.949 281.903 669.714 296.822 720 296.822Z" stroke="#FFF4DB" stroke-width="2"/>
</g>
<defs>
<clipPath id="clip0">
<rect width="1440" height="527" fill="white"/>
</clipPath>
</defs>
</svg>
