<svg preserveAspectRatio="none" width="483" height="32" viewBox="0 0 483 32" fill="none" xmlns="http://www.w3.org/2000/svg">
  <path fill-rule="evenodd" clip-rule="evenodd" d="M192.83.14c-.13.13-1.87.23-3.88.23-2 0-3.81.27-4.02.6-.2.33-1.04.6-1.86.6-.81 0-1.67.19-1.9.42-.24.23-2.13.51-4.2.62-3.66.2-17.08 2.96-18.44 3.8-.7.42-1.33.58-6.83 1.66-1.76.34-3.52.88-3.92 1.2-.4.32-2.04.72-3.66.9-1.61.19-5.88 1-9.47 1.82a60.97 60.97 0 01-14.2 1.52l-7.65.04-1.82-2.21c-4.94-6-4.9-5.99-10.47-5.85-2.78.07-6.1.37-7.35.66-1.26.28-3.75.66-5.54.83-1.79.18-3.33.57-3.44.87-.1.3-1.28.45-2.63.32-1.48-.13-3.67.3-5.55 1.1-1.7.73-3.52 1.17-4.02.97-.5-.19-1.1-.03-1.34.35s-1.57.7-2.97.7c-1.4 0-2.71.28-2.94.64-.22.36-1.12.65-2 .65-.87 0-1.6.23-1.6.5 0 .29-.6.56-1.35.62-2.8.2-11.2 3.02-11.52 3.86-.22.57-.6.67-1.08.27-.65-.53-8.02 1.55-13.16 3.71-2.37 1-5.85 2.17-7.51 2.52-.9.19-1.95.6-2.34.9-.39.3-1.27.65-1.96.78-.7.13-1.84.47-2.56.75l-3.43 1.36c-1.17.47-2.13 1.09-2.13 1.39 0 .3-1.66.53-3.7.51-2.4 0-3.8.27-3.97.8-.34 1-1.54 1.08-1.31.08.09-.4-.4-.82-1.1-.93-.7-.12-1.99-.39-2.86-.6-1.33-.34-1.44-.26-.67.44C2.5 31.38 4.44 32 8.18 32c3.85 0 7.46-1.03 6.88-1.97-.17-.27.13-.65.67-.86.54-.2.98-.07.98.3s.36.44.8.17a4.9 4.9 0 011.86-.57c.58-.04 3.78-.92 7.1-1.95 4.64-1.44 6.19-2.2 6.6-3.3.77-1.99 1.58-2.31 3.56-1.41 1.38.62 1.84.6 2.25-.05.28-.46.7-.8.93-.77 2.02.26 4.4-.1 5.11-.78.48-.45 1.7-.89 2.72-.97a7.6 7.6 0 002.59-.58c.4-.25 1.42-.52 2.27-.61.85-.1 1.95-.5 2.43-.9.5-.4 1.78-.84 2.87-.97a60.1 60.1 0 008.57-2.1c.54-.19 1.42-.42 1.96-.5.54-.1 3.77-.8 7.18-1.56 11.5-2.56 15.33-3.18 22.4-3.64 6.25-.41 7.18-.34 8.33.7.71.63 1.3 1.54 1.3 2 0 .48.87 1.32 1.95 1.87s1.96 1.27 1.96 1.6c0 1.01 4.93 2 9.13 1.84 2.18-.08 3.95-.45 3.95-.83 0-.37.27-.27.58.23.48.75 1.3.76 5.06.07a36.04 36.04 0 005.46-1.3 18.6 18.6 0 014.03-.9c1.68-.23 4.12-.85 5.42-1.4 1.3-.53 2.6-.83 2.88-.66.7.43 5.33-1 5-1.53-.14-.23.83-.44 2.15-.47 2.23-.04 4.01-.38 11.88-2.27A186.7 186.7 0 01180.88 5c1.95-.27 2.45-.62 2.47-1.73.01-1.12.13-1.2.6-.4.42.71 1.55.96 4.06.88l8.06-.26c4.58-.15 9.51.47 10.13 1.27.7.93 5.3 4.1 7.65 5.29 3.03 1.53 15.88 2.45 19.03 1.36 1.3-.45 2.07-.47 2.2-.05.14.4 1.34.28 3.15-.3 1.62-.53 4.52-.86 6.5-.75 1.97.12 3.88.02 4.25-.2.37-.24 1.7-.45 2.96-.47 5.17-.09 7.56-.36 8.5-.98 2.77-1.84-5-3.43-9.55-1.95-1.04.34-3.71.75-5.93.9-4.3.31-5.69.8-5.08 1.76.2.34.06.6-.32.6s-.7-.43-.7-.96c0-1.03-1-1.33-1.54-.47-.58.93-17.34.2-21.23-.92-3.41-.99-8.63-3.8-9.13-4.94-.62-1.38-4.62-2.56-9.07-2.66-2.65-.07-4.93-.01-5.06.11zm124.2 4.48c-.07.07-4.68.3-10.23.49-5.56.2-10.4.4-10.76.45a6.57 6.57 0 01-2.12-.37c-.99-.31-1.47-.2-1.47.33 0 .44-.19.61-.41.39-.23-.22-.97-.12-1.64.24-.82.44-1.22.43-1.22-.02 0-.97-5.05-.84-5.45.13-.26.65-.34.65-.38 0-.03-.44-.78-.8-1.68-.8-1.83 0-1.93.2-.96 1.98.66 1.23 3.51 1.75 4.13.76.17-.27 3.6-.23 7.62.1 5.19.42 7.43.38 7.75-.12.28-.46.78-.5 1.4-.11 1.16.72 2.8.82 2.37.14-.48-.79 25.28-.35 29.44.5 3.36.68 9.06 2.93 13.95 5.5 3.01 1.59 11.07 3.47 11.07 2.6 0-1.33-2.16-2.8-4.57-3.11a23.35 23.35 0 01-5.72-2c-1.88-.95-4.91-2.45-6.73-3.35-4.69-2.32-11.1-3.65-18.15-3.77a75.3 75.3 0 00-6.23.04zm-49.12 1.32c.35.9.28.97-.38.32-1.13-1.1-2.52-1.01-2.52.17 0 .53-.43.97-.95.97-.51 0-1.11.27-1.32.61-.52.84 14.04.66 15.43-.19.6-.36.93-1.04.75-1.5-.41-1.07-3.91-1.14-4.26-.1-.19.55-.72.46-1.84-.32a7.14 7.14 0 00-3.46-1.1c-1.52 0-1.8.22-1.45 1.14zm-6.3.6c.48.2 1.04.17 1.26-.05.21-.21-.17-.36-.86-.34-.76.03-.91.19-.4.4zm163.16 3.28c-1.8.08-6.06.48-9.48.9-3.41.4-7.09.81-8.17.9-1.07.1-4.75.64-8.16 1.2-3.42.55-7.24 1.14-8.5 1.3-1.26.17-4.61.64-7.45 1.06-3.2.47-8.6.6-14.21.37-7.03-.3-9.05-.2-9.05.42 0 .45.9 1.32 2 1.94 1.73.97 3.34 1.08 12.13.82 5.58-.17 10.47-.5 10.87-.75.4-.25 2.36-.55 4.36-.67 2-.12 7.46-.78 12.13-1.46l13.73-1.99c7.05-1 23.11-1.29 28.74-.5a92.1 92.1 0 019.26 1.9c2.57.68 5.51 1.37 6.53 1.51 1.02.15 2.88.58 4.14.95 2.76.83 7.83.88 9.08.1.72-.46.64-.71-.45-1.29-.74-.39-1.81-.53-2.38-.32-.57.22-1.95.03-3.05-.43-1.67-.68-2.1-.67-2.6.1-.38.57-.78.67-1.09.26-.93-1.24-6.85-3.56-9.05-3.56-.9 0-2.25-.32-2.98-.7-.73-.4-2.4-.8-3.72-.9-1.3-.11-3.4-.37-4.66-.59-2.67-.46-13.24-.8-17.97-.57zm50.63 7.24c0 .3.45.73.99.93.54.2.98.12.98-.18 0-.31-.44-.73-.98-.94-.54-.2-.99-.12-.99.19zm4.95.63c-.79.3-1 .66-.55.93.86.52 2.8-.12 2.8-.93 0-.68-.5-.68-2.25 0z" fill="#EEE"/>
</svg>
