<svg preserveAspectRatio="none" width="364" height="25" viewBox="0 0 364 25" fill="none" xmlns="http://www.w3.org/2000/svg">
  <path fill-rule="evenodd" clip-rule="evenodd" d="M179.13.18c-.1.09-1.9.27-4 .4-3.34.2-7.87 1-9.95 1.76-.36.13-1.14.29-1.75.36-1.96.21-3.7.71-4 1.15-.2.28-.51.25-.95-.09-.37-.28-.76-.34-.9-.13-.21.33-4.35 1.11-5.14.97-.16-.02-.5.2-.76.5-.3.33-1.12.48-2.2.38-.93-.1-1.83.03-1.98.26-.16.24-.75.43-1.33.43-.57 0-1.16.19-1.31.42-.15.23-.43.33-.6.22-.19-.1-1.9.18-3.8.62-1.9.45-4.04.9-4.77 1.03-.72.11-2.6.49-4.16.82-1.56.34-3.53.72-4.37.85-.84.12-3.1.54-5.02.92-2.03.41-5.3.7-7.76.68-2.45-.01-4.34.15-4.44.39-.12.25-.33.23-.55-.07-.23-.3-1.7-.47-3.86-.46-3.08.01-9.5-.88-15.51-2.17-1.08-.23-2.4-.48-2.93-.56-3.08-.48-8.29-1.64-8.71-1.94a6.32 6.32 0 00-2.18-.52c-.93-.08-2.88-.34-4.32-.56-3.34-.52-11.47-.58-11.8-.08-.13.2-.56.26-.96.12-.53-.2-.61-.11-.34.32.3.47.25.49-.25.11-.48-.35-1.59-.32-4.56.13a37.1 37.1 0 00-4.81.96c-.48.2-1.76.47-2.84.61a53.52 53.52 0 00-9.46 2.51c-.76.32-1.59.57-1.84.57s-1.96.65-3.8 1.44c-1.86.79-3.7 1.43-4.13 1.43-.41 0-1.26.37-1.87.82-.6.45-1.39.82-1.73.82-.34 0-.77.14-.95.31-.18.17-.46.32-.62.33-1.6.11-3.82 1.53-3.4 2.17.13.2-.2.28-.73.18-1.1-.2-2.17.18-5.38 1.9a9.3 9.3 0 01-3.85 1.18c-.9 0-1.96.28-2.36.62-.8.67-3.77 1.07-4.29.58-.17-.16-.67-.3-1.11-.3-1.05 0-1.07 1.5-.04 1.98 1.4.66 5.24.57 6.41-.14a3.16 3.16 0 012.45-.4c1.28.27 4.48-.98 13.68-5.36a6.07 6.07 0 011.78-.59c.3 0 1.55-.46 2.8-1.02A15.14 15.14 0 0130.57 16c.42 0 1.3-.32 5.6-2.08 1.27-.52 2.65-.99 3.06-1.04 1.5-.2 3.85-.88 5.56-1.61.96-.41 2.04-.78 2.4-.82.36-.04.76-.1.88-.16.12-.04 1.1-.15 2.18-.22 1.08-.08 3.05-.43 4.37-.78C59 8.13 70.83 7.83 73.46 8.82c.38.14.87.22 1.09.18.21-.05.69.02 1.05.15.36.14 1.34.33 2.18.44 2.7.34 4.57.75 5.42 1.18.46.23 1.73.5 2.84.61 1.1.1 2.24.38 2.53.6.28.21.77.34 1.09.28.32-.07 1.46.1 2.54.35 5.76 1.4 17.18 2.39 21.09 1.84 1.5-.2 2.51-.2 2.51.02 0 .21.62.25 1.42.08.78-.17 1.72-.29 2.08-.27.66.04 6-.78 10.48-1.6a369.44 369.44 0 0024.34-5.47c1.05-.2 1.34-.45 1.16-.97-.18-.54-.14-.57.2-.12.31.41.89.49 2.12.27l2.78-.49c.6-.1 2.17-.44 3.5-.75 1.31-.32 4.46-.88 6.98-1.25 2.53-.37 4.89-.78 5.25-.9.36-.13 1.83-.32 3.27-.42 1.45-.1 2.78-.4 2.96-.66.2-.3.44-.33.65-.06.57.7 1.42.65 1.45-.1.03-.57.1-.6.29-.1.37.91 1.07 1.22 1.88.8a4.43 4.43 0 013.56.29c.92.65 3.51 1.67 5.06 1.97.78.16 1.42.45 1.42.66 0 .2.59.38 1.3.38.73 0 1.32.18 1.32.4 0 .55 4.24 1.65 8 2.07 1.73.2 3.93.5 4.9.67 2.52.47 8.88.37 9.43-.14.33-.31 1.06-.27 2.5.14 1.25.35 2.1.42 2.18.17.09-.25.53-.26 1.17-.03a4 4 0 002.26 0c.69-.21 4.2-.66 7.8-1.01 3.6-.35 7.04-.73 7.64-.86.6-.13 1.59-.29 2.19-.36.6-.07 2.07-.27 3.28-.46 1.2-.19 2.45-.3 2.77-.23.33.06.92-.02 1.31-.17.4-.16 2.26-.34 4.13-.4 1.88-.08 3.66-.32 3.95-.56.31-.24 1.18-.3 2.05-.12.84.16 2.4.2 3.49.08 1.08-.12 2.79-.1 3.8.02 1.01.14 1.73.08 1.6-.11-.12-.2.57-.3 1.55-.24.98.06 1.79.24 1.79.4 0 .15 1.36.4 3.03.56 1.95.18 3.11.48 3.26.84.13.32.54.57.92.57.58 0 2.96 1.32 3.71 2.06 1.42 1.4 10.73 5.17 13.6 5.52l3.88.47c.84.1 1.33.04 1.1-.14-.25-.18-.44-.68-.44-1.13 0-.64-.33-.8-1.67-.85-1.02-.04-1.44.07-1.09.28.4.24.42.34.05.35-.29 0-.64-.18-.8-.41-.39-.6-3.1-1.6-4.77-1.76-.8-.08-2.4-.73-3.56-1.46a15.35 15.35 0 00-3.09-1.55c-.53-.12-1.07-.48-1.2-.8a.98.98 0 00-.82-.58c-.32 0-.97-.33-1.43-.74-.84-.72-3.1-1.68-6.53-2.76-2-.63-15.95-1.07-19.21-.6-1.14.16-2.25.55-2.46.86-.29.42-.39.44-.4.05 0-.4-.96-.46-4.26-.25-2.34.15-4.6.44-5.03.64-.42.2-1.99.46-3.5.57-3.44.26-5.57.54-6.01.8-.2.1-1.99.3-4 .41-2 .12-5.12.4-6.92.61-1.8.23-3.8.31-4.45.2-.65-.11-1.27-.06-1.38.12-.12.17-1.36.27-2.76.21l-7.8-.26c-4.96-.16-6.1-.31-7.64-1.06-.36-.17-1.74-.55-3.06-.83a19.4 19.4 0 01-4.2-1.49c-1-.53-1.9-.87-2.03-.75-.13.12-.97-.07-1.86-.42a9.25 9.25 0 00-2.59-.64c-.52 0-1.16-.2-1.43-.45a4.7 4.7 0 00-2.1-.6 6.1 6.1 0 01-1.86-.36c-.12-.11-.58-.02-1.03.2-.58.3-.82.28-.82-.06 0-.36-.15-.36-.62 0-.42.33-.7.35-.9.06-.26-.4-3.36-.63-3.76-.27zM152.8 6.34c0 .32-.27.48-.62.35-.5-.19-.52-.29-.03-.57.32-.2.6-.35.61-.35.02 0 .04.25.04.57zm-2.04.24c0 .22-.08.4-.2.4-.1 0-.3-.18-.45-.4-.15-.23-.07-.41.19-.41.25 0 .46.18.46.4zm-1.97.4c-.14.24-.5.42-.79.41-.3 0-.25-.16.14-.4.84-.51.99-.51.66 0zm205.62.73c-.84.1-1.78.36-2.08.6-.37.28-.73.28-1.1.01-.3-.23-.92-.27-1.41-.08-.48.18-1.6.35-2.49.36-.89.02-1.74.23-1.9.47-.16.24-.56.34-.89.22-.67-.24-5.85.52-6.52.96a8.5 8.5 0 01-2.57.35c-1.17.04-2.36.25-2.64.46-.28.22-.89.34-1.36.27a6.47 6.47 0 00-2.17.27c-1.5.44-1.91.48-9.62 1.08-3.12.24-6.96.39-8.52.33-3.24-.11-4.35.22-4.14 1.26l.18.97c.04.32 11.3.15 14.45-.22 5.71-.68 8.57-1.2 9.43-1.73.52-.32 1.84-.53 3.06-.49 1.18.05 3.13-.13 4.33-.39 2.2-.47 5.75-1.13 9.4-1.74 1.08-.18 2.8-.53 3.83-.78 1.03-.24 4.1-.5 6.85-.55 4.94-.1 6.06-.34 5.22-1.13-.47-.44-6.8-.77-9.34-.5z" fill="#AE99FF"/>
</svg>
