<svg width="135" height="104" viewBox="0 0 135 104" fill="none" xmlns="http://www.w3.org/2000/svg"><path d="M6.07 53.16L39.57 0h24.85L43.04 44.78c5.2 1.92 9.63 5.49 13.3 10.69a29.89 29.89 0 015.48 17.62c0 8.47-3.08 15.8-9.24 21.95A29.51 29.51 0 0130.9 104c-8.47 0-15.8-2.98-21.95-8.96A30.48 30.48 0 010 73.1c0-6.93 2.02-13.58 6.07-19.93zm69.9 0L109.5 0h24.84l-21.37 44.78c5.2 1.92 9.63 5.49 13.28 10.69a29.88 29.88 0 015.5 17.62c0 8.47-3.09 15.8-9.25 21.95a29.51 29.51 0 01-21.67 8.96c-8.47 0-15.79-2.98-21.95-8.96A30.48 30.48 0 0169.9 73.1c0-6.93 2.02-13.58 6.07-19.93z" fill="#FFF7E0"/></svg>