<svg width="157" height="157" viewBox="0 0 157 157" fill="none" xmlns="http://www.w3.org/2000/svg">
  <circle cx="78.5" cy="78.5" r="78.5" fill="#FFFAE5"/>
  <circle cx="78.5" cy="78.5" r="62.5" fill="#FEF2CD"/>
  <g clip-path="url(#clip0)">
    <rect x="32" y="32" width="93" height="93" rx="46.5" fill="#FAC734"/>
    <circle cx="78.39" cy="78.39" r="43.14" fill="#FFF5D0" stroke="#fff" stroke-width="2.17"/>
    <path d="M97.18 95.64c-1.83-.37-3.58-.79-5.04-1.08l-2.45-.54.29-2.5c0-.12.04-.24.04-.37a3.9 3.9 0 00-.29-1.54l-.58-1.33.79-1.24c.46-.75.66-1.59.66-2.54 0-1-.29-1.87-.83-2.62l-.95-1.3.62-1.49c.25-.58.37-1.2.37-1.83 0-.87 0-3.5-4.11-5.07a13.9 13.9 0 00-3.91-.67l-4.45-.29 2.12-3.87c1.7-3.08 2.66-5.86 2.66-7.82 0-1.79-.58-3.37-1.91-3.9-4.62-2-7.9 1.11-10.24 4.94a139 139 0 00-5.61 10.07c-3.04 6.4-7.53 11.02-7.53 17.42 0 5.83 3.91 10.4 11.06 12.82 8.78 2.95 21.88 3.74 27.58 3.74 4.08 0 6.32-1.58 6.32-4.5 0-3.03-2.87-4.11-4.61-4.48z" fill="#FFD338"/>
    <path d="M95.35 93.07l-8.82-1.92c.7-.5 1.45-1.54 1.45-2.83 0-1.5-.79-2.37-1.41-2.82a4.53 4.53 0 001.96-3.79c0-2.2-1.5-3.33-2.3-3.87a4.67 4.67 0 001.5-3.37c0-2.87-2.2-4.16-3.99-4.86-1.45-.54-4.2-.75-6.61-.75-3.95 0-7.53.29-9.24.29-2.03 0-1.78-1.04-1.04-2 .46-.54 6.24-8.15 7.33-9.52.74-1 1.62-1.96 2.28-1.58.71.37.42 2.12-.33 4.03-1.12 3-2.7 4.91-3.08 5.58l2.66 1.62c1.04-1.3 4.41-6.9 4.41-10.53 0-1.62-.62-2.99-1.83-3.74a3.98 3.98 0 00-4.11.17 9.7 9.7 0 00-2.63 2.33c-2.08 2.66-6.48 8.23-8.1 10.31-2.34 3.04-1.25 6.78 3.7 6.78 1.74 0 7.44-.41 9.65-.41 2.53 0 3.78.12 4.65.25 1.67.25 2.62 1 2.62 2 0 .7-.33 1.2-.91 1.61-.58.42-1.12 1.04-1.12 1.92 0 1.04.95 1.45 1.58 1.87.83.54 1.33.91 1.33 1.79 0 .79-.58 1.25-1.25 1.74-.54.42-1.25.88-1.25 1.83 0 .88.63 1.3 1.04 1.63.42.33.88.7.88 1.41 0 .7-.34 1.04-1.17 1.54-.66.37-1.62 1.08-1.62 2.08 0 1.12.79 1.62 1.75 1.87 2.28.54 9.1 2 11.43 2.54.75.17 1.5.41 1.5 1.04 0 .62-1 .91-2.41.91-4.9 0-18.55-1-26.58-3.78-5.45-1.83-8.44-5.2-8.44-9.24 0-3.49 2.33-6.6 4.86-8.4l-2.28-2.33c-3.66 2.54-6.16 6.58-6.16 10.82 0 4.9 2.91 9.9 10.94 12.6 8.53 2.87 21.46 3.74 27.5 3.74 4.11 0 6.1-1.7 6.1-4.28-.03-2.45-2.03-3.78-4.44-4.28z" fill="#222"/>
  </g>
  <defs>
    <clipPath id="clip0">
      <rect x="32" y="32" width="93" height="93" rx="46.5" fill="#fff"/>
    </clipPath>
  </defs>
</svg>
